<?xml version="1.0" encoding="utf-8"?>
<!-- Generator: Adobe Illustrator 26.2.1, SVG Export Plug-In . SVG Version: 6.00 Build 0)  -->
<svg version="1.1" id="Livello_1" xmlns="http://www.w3.org/2000/svg" xmlns:xlink="http://www.w3.org/1999/xlink" x="0px" y="0px"
	 viewBox="0 0 491.8 153.1" style="enable-background:new 0 0 491.8 153.1;" xml:space="preserve" fill="#c0fb34" stroke="#b375ef"> 
<style type="text/css">
	.st0{fill:url(#SVGID_1_);}
	.st1{fill:url(#SVGID_00000163764497103414989530000004313598881005586360_);}
	.st2{fill:url(#SVGID_00000118390457374991753410000017088910030604889513_);}
	.st3{fill:url(#SVGID_00000177463025856201149760000004385289168433375380_);}
	.st4{fill:#FFFFFF;}
</style>
<g>
	<path d="M80.6,115.5c3.2-3.3,3.2-8.7,0-12l0,0c-3.2-3.3-8.5-3.3-11.7,0l-11,11.3L22.3,78.4c-1.1-1.1-1.1-2.8,0-3.9l36.2-37
		l10.3,10.4c3.2,3.2,8.4,3.2,11.5,0l0,0c3.2-3.3,3.2-8.6,0-11.8L62.2,17.6c-2.1-2.2-5.5-2.2-7.6,0l-53.8,55c-2.1,2.2-2.1,5.6,0,7.8
		L54,134.8c2.1,2.2,5.5,2.2,7.6,0L80.6,115.5z"/>
	<path d="M119.2,106.5L91.8,78.4c-1.1-1.1-1.1-2.8,0-3.9l27.2-27.8c2.1-2.2,2.1-5.7,0-7.8l-36-36.6c-3.1-3.2-8.2-3.2-11.3,0l0,0
		c-3.1,3.2-3.1,8.4,0,11.5l28,28.6l-29.3,30c-2.1,2.2-2.1,5.6,0,7.8l29.8,30.5l-27.7,28.3c-3.1,3.2-3.1,8.4,0,11.5l0,0
		c3.1,3.2,8.2,3.2,11.3,0l35.5-36.5C121.3,112.1,121.3,108.6,119.2,106.5z"/>
	<g>
		<path d="M149.9,94.2c-1.9-1.1-3.3-2.7-4.3-4.7c-1-2-1.5-4.3-1.5-7v-9.8c0-2.6,0.5-5,1.6-7c1-2,2.5-3.6,4.4-4.7
			c1.9-1.1,4.1-1.7,6.6-1.7h5.3c2.4,0,4.4,0.5,6.3,1.6c1.8,1,3.2,2.5,4.2,4.4c1,1.9,1.5,4.1,1.5,6.5h-5.7c0-2.2-0.6-3.9-1.7-5.2
			c-1.2-1.3-2.7-2-4.5-2h-5.3c-2,0-3.6,0.8-4.9,2.3c-1.2,1.5-1.8,3.5-1.8,6v9.4c0,2.5,0.6,4.5,1.8,6c1.2,1.5,2.8,2.3,4.7,2.3h5.4
			c1.9,0,3.5-0.7,4.7-2.2c1.2-1.5,1.8-3.4,1.8-5.8h5.7c0,2.6-0.5,5-1.5,7s-2.4,3.6-4.3,4.7c-1.8,1.1-4,1.7-6.4,1.7h-5.4
			C153.9,95.9,151.7,95.3,149.9,94.2z"/>
		<path d="M183.1,70.1h5.3v3.5c0.7-1.1,1.6-1.9,2.9-2.6c1.2-0.7,2.5-1,3.9-1h3v5.1h-3c-1.9,0-3.4,0.6-4.6,1.8
			c-1.2,1.2-1.7,2.7-1.7,4.6v14h-5.7V70.1z"/>
		<path d="M209,103.7c-1.6-1.4-2.5-3.3-2.7-5.6h5.6c0.1,0.8,0.4,1.5,1,2c0.6,0.5,1.4,0.8,2.3,0.8h4c1.3,0,2.3-0.5,3-1.4
			c0.7-1,1.1-2.3,1.1-3.9v-3.8c-0.8,1.1-1.7,2-2.8,2.6c-1,0.6-2.1,1-3.2,1h-3.2c-2.5,0-4.6-0.9-6.1-2.6c-1.5-1.7-2.3-4-2.3-6.8V70.1
			h5.7v16c0,1.3,0.3,2.3,0.9,3.1c0.6,0.8,1.4,1.2,2.5,1.2h2.9c1.2,0,2.4-0.5,3.4-1.6c1-1.1,1.8-2.4,2.1-4V70.1h5.7v25.4
			c0,3.2-0.9,5.7-2.7,7.5c-1.8,1.9-4.2,2.8-7.1,2.8h-4C212.7,105.8,210.7,105.1,209,103.7z"/>
		<path d="M240,70.1h5.3v3c0.7-1,1.6-1.8,2.7-2.5c1.1-0.6,2.2-0.9,3.3-0.9h3.3c2.9,0,5.2,0.9,7,2.7c1.8,1.8,2.7,4.1,2.7,7v5.9
			c0,3.2-0.9,5.7-2.6,7.7c-1.8,1.9-4.1,2.9-7,2.9h-3.3c-1,0-2-0.2-3-0.7c-1-0.5-1.9-1.1-2.5-2v12.5H240V70.1z M253.9,90.8
			c1.4,0,2.5-0.5,3.3-1.6c0.8-1.1,1.3-2.5,1.3-4.3v-5.2c0-1.5-0.4-2.7-1.2-3.6c-0.8-0.9-1.9-1.4-3.3-1.4h-3.2
			c-1.1,0-2.2,0.5-3.1,1.3c-0.9,0.9-1.6,2.1-2,3.5v5.9c0.2,1.6,0.7,2.9,1.7,3.9c0.9,1,2.1,1.5,3.4,1.5H253.9z"/>
		<path d="M278.1,93.5c-1.3-1.3-1.9-3.3-1.9-6.1V75.1h-4.4v-5h4.5v-7.7h5.6v7.7h6.5v5h-6.5v12.1c0,1.1,0.2,1.9,0.6,2.4
			c0.4,0.5,1.1,0.8,2,0.8h3.8v5h-4.1C281.4,95.5,279.4,94.8,278.1,93.5z"/>
		<path d="M299.2,93.1c-1.9-1.8-2.8-4.2-2.8-7.2v-6.3c0-2,0.4-3.7,1.3-5.2c0.8-1.5,2-2.7,3.6-3.5c1.5-0.8,3.3-1.2,5.3-1.2h4.4
			c2,0,3.8,0.4,5.3,1.2c1.5,0.8,2.7,2,3.6,3.5c0.8,1.5,1.3,3.2,1.3,5.2V86c0,3-0.9,5.4-2.8,7.2c-1.9,1.8-4.4,2.7-7.5,2.7h-4.3
			C303.5,95.9,301,95,299.2,93.1z M310.8,90.8c1.4,0,2.5-0.5,3.4-1.4c0.8-1,1.3-2.2,1.3-3.8V80c0-1.6-0.4-2.8-1.2-3.8
			c-0.8-1-1.9-1.4-3.3-1.4h-4.2c-1.4,0-2.5,0.5-3.3,1.4c-0.8,1-1.2,2.2-1.2,3.8v5.6c0,1.6,0.4,2.8,1.2,3.8c0.8,1,1.9,1.4,3.2,1.4
			H310.8z"/>
		<path d="M334.7,94.6c-0.7-0.6-1.2-1.5-1.4-2.9l-6.1-31.8h5.9l4.6,27.1h0.1l7.7-25.2h2.2c1.6,0,2.6,0.9,3.2,2.7l6.6,22.4h0.1
			l4.6-27.1h5.9l-6.1,31.8c-0.3,1.3-0.7,2.2-1.4,2.8c-0.6,0.6-1.5,0.9-2.7,0.9h-2.4l-7.8-25.8h-0.1l-8,25.8h-2.4
			C336.2,95.5,335.4,95.2,334.7,94.6z"/>
		<path d="M376.7,93.9c-1.5-1.3-2.3-3-2.3-5.2v-1.8c0-2.1,0.8-3.8,2.4-5.1c1.6-1.3,3.7-1.9,6.3-1.9h3.1c0.9,0,1.9,0.1,3,0.4
			c1.1,0.3,2,0.6,2.8,1.1v-3.2c0-1.1-0.3-1.9-1-2.5c-0.7-0.6-1.5-1-2.6-1h-4.2c-1.1,0-2,0.3-2.6,0.8c-0.7,0.5-1,1.2-1,2.1h-5.6
			c0-2.3,0.8-4.2,2.5-5.6c1.7-1.4,3.9-2.1,6.7-2.1h4.2c2.8,0,5,0.8,6.7,2.3c1.7,1.5,2.5,3.6,2.5,6.1v17.3h-5.3v-3.2
			c-0.8,1.1-1.8,2-3,2.6c-1.2,0.7-2.4,1-3.5,1h-3.1C380.3,95.9,378.3,95.2,376.7,93.9z M386.3,91.3c1.3,0,2.5-0.4,3.6-1.1
			c1.1-0.8,1.8-1.8,2.2-3v-1.2c-0.6-0.5-1.4-0.9-2.4-1.1c-1-0.3-2.1-0.4-3.2-0.4h-3.1c-1,0-1.8,0.3-2.4,0.8c-0.6,0.5-0.9,1.2-0.9,2
			v1.4c0,0.8,0.3,1.5,0.9,2c0.6,0.5,1.5,0.8,2.5,0.8H386.3z"/>
		<path d="M410.2,93.7c-1.3-1.2-1.9-3.1-1.9-5.7V59.9h5.7v27.8c0,1,0.2,1.7,0.6,2.1c0.4,0.4,1.1,0.6,2,0.6h2.4v5h-2.7
			C413.5,95.5,411.5,94.9,410.2,93.7z"/>
		<path d="M428.7,93.7c-1.3-1.2-1.9-3.1-1.9-5.7V59.9h5.7v27.8c0,1,0.2,1.7,0.6,2.1c0.4,0.4,1.1,0.6,2,0.6h2.4v5h-2.7
			C432,95.5,430,94.9,428.7,93.7z"/>
		<path d="M449.4,94.7c-1.5-0.8-2.7-1.9-3.6-3.3c-0.8-1.4-1.3-3.1-1.3-4.9v-6.8c0-2,0.4-3.7,1.3-5.2c0.8-1.5,2-2.7,3.6-3.5
			c1.5-0.8,3.3-1.2,5.3-1.2h4c3,0,5.4,0.9,7.3,2.7c1.8,1.8,2.7,4.2,2.7,7.2v5.1h-18.5v1.8c0,1.4,0.4,2.4,1.2,3.3
			c0.8,0.8,1.9,1.2,3.3,1.2h3.8c1.3,0,2.4-0.3,3.2-1c0.8-0.7,1.2-1.5,1.2-2.6h5.6c0,2.6-0.9,4.6-2.8,6.2c-1.9,1.6-4.3,2.3-7.3,2.3
			h-3.8C452.7,95.9,450.9,95.5,449.4,94.7z M463.1,80.3v-0.7c0-1.5-0.4-2.7-1.2-3.6c-0.8-0.9-1.8-1.4-3.1-1.4h-4
			c-1.4,0-2.5,0.5-3.3,1.4c-0.8,1-1.3,2.2-1.3,3.8v0.5H463.1z"/>
		<path d="M482.4,93.5c-1.3-1.3-1.9-3.3-1.9-6.1V75.1H476v-5h4.5v-7.7h5.6v7.7h6.5v5h-6.5v12.1c0,1.1,0.2,1.9,0.6,2.4s1.1,0.8,2,0.8
			h3.8v5h-4.1C485.7,95.5,483.7,94.8,482.4,93.5z"/>
	</g>
</g>
</svg>
