<?xml version="1.0" encoding="utf-8"?>
<!-- Generator: Adobe Illustrator 26.2.1, SVG Export Plug-In . SVG Version: 6.00 Build 0)  -->
<svg version="1.1" class="animation" id="Livello_1" xmlns="http://www.w3.org/2000/svg" xmlns:xlink="http://www.w3.org/1999/xlink" x="0px" y="0px"
	 viewBox="0 0 168.1 206.9" style="enable-background:new 0 0 168.1 206.9;" xml:space="preserve" fill="#c0fb34">
	 <animate
      attributeName="fill"
      values="#c0fb34;#5a5868;#c0fb34"
	  from="left"
	  to="right"
      dur="2.5s"
      repeatCount="indefinite" />
<style type="text/css">
	.st0{fill:url(#SVGID_1_);}
	.st1{fill:url(#SVGID_00000166663600733572315360000011102222752406393272_);}
	.st2{fill:url(#SVGID_00000013901086801433796560000010292683113104958877_);}
	.st3{fill:url(#SVGID_00000056415191821487223410000014522343006223045030_);}
	.st4{fill:#FFFFFF;stroke:url(#SVGID_00000050632709423480745830000004529655925719655579_);stroke-miterlimit:10;}
	.st5{fill:#FFFFFF;stroke:url(#SVGID_00000091712778223031536390000001640553014864755121_);stroke-miterlimit:10;}
</style>
<g>
	<path d="M112.8,139.2c-2.3-2.3-5.3-3.5-8.5-3.5c-3.2,0-6.2,1.2-8.5,3.5l-14.7,14.7l-48.4-48.4c-1.2-1.2-1.2-3.1,0-4.3L82,52
		l13.7,13.5c4.6,4.6,12.2,4.6,16.8-0.1c4.6-4.6,4.6-12.2,0-16.8L87.6,23.8c-1.5-1.5-3.5-2.4-5.7-2.4c-2.2,0-4.2,0.8-5.7,2.4
		L2.4,97.6c-1.5,1.5-2.4,3.5-2.4,5.7s0.8,4.2,2.4,5.7l73.1,73.1c1.6,1.6,3.6,2.4,5.7,2.4c2.1,0,4.1-0.8,5.7-2.4l26-25.9
		C117.5,151.5,117.5,143.9,112.8,139.2z"/>
	<path d="M165.8,143.1l-37.7-37.7c-1.2-1.2-1.2-3.1,0-4.3l37.3-37.3c1.5-1.5,2.4-3.6,2.4-5.7c0-2.2-0.9-4.2-2.4-5.7L115.9,3.4
		c-4.5-4.5-11.9-4.5-16.4,0.1c-4.5,4.5-4.5,11.9,0,16.4l38,38L97.7,97.6c-3.1,3.1-3.1,8.3,0,11.4l40.4,40.4L100.6,187
		c-4.5,4.5-4.5,11.9,0,16.4c2.2,2.2,5.1,3.4,8.2,3.4c3.1,0,6-1.2,8.2-3.4l48.8-49C168.9,151.4,168.9,146.3,165.8,143.1z"/>
</g>
</svg>
